REM DIRINDEX 1\2,1\3,1\4,1\5,1\6
REM DIRNAME cjc129,folder01,folder02,folder03,folder04,folder05
TITLE ""
FILE "DISC1Track10.mp3" MP3
  TRACK 01 AUDIO
    TITLE "0:"
    INDEX 01 00:00:00
  TRACK 02 AUDIO
    TITLE "3:cjc129_0256"
    INDEX 01 00:00:05
  TRACK 03 AUDIO
    TITLE "0:"
    INDEX 01 00:01:34
  TRACK 04 AUDIO
    TITLE "5:cjc129_0257"
    INDEX 01 00:01:64
  TRACK 05 AUDIO
    TITLE "0:"
    INDEX 01 00:09:04
  TRACK 06 AUDIO
    TITLE "4:cjc129_0258"
    INDEX 01 00:09:69
  TRACK 07 AUDIO
    TITLE "0:"
    INDEX 01 00:11:23
  TRACK 08 AUDIO
    TITLE "6:cjc129_0259"
    INDEX 01 00:11:52
  TRACK 09 AUDIO
    TITLE "0:"
    INDEX 01 00:14:25
  TRACK 10 AUDIO
    TITLE "3:cjc129_0260"
    INDEX 01 00:15:74
  TRACK 11 AUDIO
    TITLE "0:"
    INDEX 01 00:19:16
  TRACK 12 AUDIO
    TITLE "5:cjc129_0261"
    INDEX 01 00:19:46
  TRACK 13 AUDIO
    TITLE "0:"
    INDEX 01 00:24:31
  TRACK 14 AUDIO
    TITLE "4:cjc129_0262"
    INDEX 01 00:25:23
  TRACK 15 AUDIO
    TITLE "0:"
    INDEX 01 00:28:37
  TRACK 16 AUDIO
    TITLE "6:cjc129_0263"
    INDEX 01 00:28:70
  TRACK 17 AUDIO
    TITLE "0:"
    INDEX 01 00:34:16
  TRACK 18 AUDIO
    TITLE "3:cjc129_0264"
    INDEX 01 00:35:64
  TRACK 19 AUDIO
    TITLE "0:"
    INDEX 01 00:37:16
  TRACK 20 AUDIO
    TITLE "5:cjc129_0265"
    INDEX 01 00:37:50
  TRACK 21 AUDIO
    TITLE "0:"
    INDEX 01 00:39:52
  TRACK 22 AUDIO
    TITLE "4:cjc129_0266"
    INDEX 01 00:40:46
  TRACK 23 AUDIO
    TITLE "0:"
    INDEX 01 00:41:73
  TRACK 24 AUDIO
    TITLE "6:cjc129_0267"
    INDEX 01 00:42:31
  TRACK 25 AUDIO
    TITLE "0:"
    INDEX 01 00:47:32
  TRACK 26 AUDIO
    TITLE "3:cjc129_0268"
    INDEX 01 00:49:06
  TRACK 27 AUDIO
    TITLE "0:"
    INDEX 01 00:50:23
  TRACK 28 AUDIO
    TITLE "5:cjc129_0269"
    INDEX 01 00:51:67
  TRACK 29 AUDIO
    TITLE "0:"
    INDEX 01 00:56:04
  TRACK 30 AUDIO
    TITLE "4:cjc129_0270"
    INDEX 01 00:56:67
  TRACK 31 AUDIO
    TITLE "0:"
    INDEX 01 00:58:11
  TRACK 32 AUDIO
    TITLE "6:cjc129_0271"
    INDEX 01 00:58:42
  TRACK 33 AUDIO
    TITLE "0:"
    INDEX 01 01:01:64
  TRACK 34 AUDIO
    TITLE "3:cjc129_0272"
    INDEX 01 01:03:39
  TRACK 35 AUDIO
    TITLE "0:"
    INDEX 01 01:04:56
  TRACK 36 AUDIO
    TITLE "5:cjc129_0273"
    INDEX 01 01:06:12
  TRACK 37 AUDIO
    TITLE "0:"
    INDEX 01 01:12:05
  TRACK 38 AUDIO
    TITLE "4:cjc129_0274"
    INDEX 01 01:12:70
  TRACK 39 AUDIO
    TITLE "0:"
    INDEX 01 01:14:10
  TRACK 40 AUDIO
    TITLE "6:cjc129_0275"
    INDEX 01 01:14:43
  TRACK 41 AUDIO
    TITLE "0:"
    INDEX 01 01:17:28
  TRACK 42 AUDIO
    TITLE "3:cjc129_0276"
    INDEX 01 01:19:01
  TRACK 43 AUDIO
    TITLE "0:"
    INDEX 01 01:20:22
  TRACK 44 AUDIO
    TITLE "5:cjc129_0277"
    INDEX 01 01:20:51
  TRACK 45 AUDIO
    TITLE "0:"
    INDEX 01 01:22:46
  TRACK 46 AUDIO
    TITLE "4:cjc129_0278"
    INDEX 01 01:23:34
  TRACK 47 AUDIO
    TITLE "0:"
    INDEX 01 01:24:55
  TRACK 48 AUDIO
    TITLE "6:cjc129_0279"
    INDEX 01 01:25:11
  TRACK 49 AUDIO
    TITLE "0:"
    INDEX 01 01:29:35
  TRACK 50 AUDIO
    TITLE "3:cjc129_0280"
    INDEX 01 01:31:08
  TRACK 51 AUDIO
    TITLE "0:"
    INDEX 01 01:32:29
  TRACK 52 AUDIO
    TITLE "5:cjc129_0281"
    INDEX 01 01:33:74
  TRACK 53 AUDIO
    TITLE "0:"
    INDEX 01 01:36:74
  TRACK 54 AUDIO
    TITLE "4:cjc129_0282"
    INDEX 01 01:37:64
  TRACK 55 AUDIO
    TITLE "0:"
    INDEX 01 01:39:10
  TRACK 56 AUDIO
    TITLE "6:cjc129_0283"
    INDEX 01 01:39:41
  TRACK 57 AUDIO
    TITLE "0:"
    INDEX 01 01:43:58
  TRACK 58 AUDIO
    TITLE "3:cjc129_0284"
    INDEX 01 01:45:36
  TRACK 59 AUDIO
    TITLE "0:"
    INDEX 01 01:46:55
  TRACK 60 AUDIO
    TITLE "5:cjc129_0285"
    INDEX 01 01:48:09
  TRACK 61 AUDIO
    TITLE "0:"
    INDEX 01 01:52:40
  TRACK 62 AUDIO
    TITLE "4:cjc129_0286"
    INDEX 01 01:53:23
  TRACK 63 AUDIO
    TITLE "0:"
    INDEX 01 01:54:46
  TRACK 64 AUDIO
    TITLE "6:cjc129_0287"
    INDEX 01 01:55:01
  TRACK 65 AUDIO
    TITLE "0:"
    INDEX 01 01:58:50
